<?xml version="1.0" encoding="UTF-8"?>
<svg id="Layer_2" data-name="Layer 2" xmlns="http://www.w3.org/2000/svg" viewBox="0 0 173.75 208.13">
  <defs>
    <style>
      .cls-1 {
        fill: none;
        stroke-width: 8px;
      }

      .cls-1, .cls-2 {
        stroke: #231f20;
        stroke-miterlimit: 10;
      }

      .cls-2 {
        fill: #ef4823;
        stroke-width: 6px;
      }
    </style>
  </defs>
  <g id="Flaem">
    <g id="White_BG" data-name="White BG">
      <polygon class="cls-2" points="60.6 196.83 48.2 175.3 45.81 159.65 54.94 137.48 69.51 154 71.52 142.49 66.9 130.09 73.42 101.17 103.64 72.04 100.6 117.26 127.99 152.91 125.81 184.43 106.68 203.35 60.6 196.83"/>
      <polygon class="cls-1" points="35.02 186.39 10.45 149.87 4.15 123.35 19.58 74 35.02 60.3 40.88 91.17 58.49 59.22 72.84 44.22 72.84 24 62.84 4 89.6 4 113.06 21.17 132.62 62.26 126.32 94.22 129.8 104.02 139.8 106.83 151.1 95.2 169.64 118.37 166.54 158.57 145.45 187.26 113.71 204 57.19 196.83 35.02 186.39"/>
    </g>
  </g>
</svg>