<?xml version="1.0" encoding="UTF-8"?>
<svg id="Layer_2" data-name="Layer 2" xmlns="http://www.w3.org/2000/svg" viewBox="0 0 227.58 209.7">
  <defs>
    <style>
      .cls-1 {
        fill: none;
      }

      .cls-1, .cls-2, .cls-3 {
        stroke: #231f20;
        stroke-miterlimit: 10;
      }

      .cls-1, .cls-3 {
        stroke-width: 8px;
      }

      .cls-2 {
        stroke-width: 6px;
      }

      .cls-2, .cls-3 {
        fill: #ef4823;
      }
    </style>
  </defs>
  <g id="Fist">
    <g id="White_BG" data-name="White BG">
      <polygon class="cls-2" points="202.02 137.43 213.27 171.31 223.58 166.51 223.58 94.81 202.02 81.27 202.02 137.43"/>
      <polygon class="cls-1" points="223.58 94.81 223.58 166.51 146.86 204.62 141.34 197.1 143.85 181.55 172.93 167.01 182.46 141.94 202.02 137.43 202.02 81.27 223.58 94.81"/>
      <path class="cls-1" d="M5.17,117.87c3.39-1.79,12.82-7.34,18.55-19.05,6.84-13.97,3.67-27.02,2.76-30.34l13.04-10.28c2.01.25,7.19.6,11.13-2.68,2.64-2.2,3.6-5.1,5.01-9.4,1.24-3.76,1.71-7.02,1.91-9.22,5.93-4.85,11.87-9.69,17.8-14.54,2.34,1.04,5.84,2.34,10.25,3.08,4.68.79,8.52,1.43,12.59-.14,6.01-2.32,8.82-8.04,9.75-10.21,4.13-3.49,8.26-6.97,12.38-10.46l12.69,5.19,49.14,47.64,9.28,67.19-34.58,10.54-15.57-66.7,16.4,70.28,6.16,15.96c-5.05,3.55-10.92,7.25-17.63,10.78-8.92,4.7-17.31,8.06-24.64,10.48l-23.29-23.27,23.29,23.27c-3,3.14-8.44,8.03-16.58,11.53-9.3,4-17.62,4.25-22.13,4.06l-34.6-26.07,34.6,26.07-17.55,11.53-32.34-22.56L5.17,117.87Z"/>
      <path class="cls-3" d="M178.87,54.24l-37.56,14.24,13.13,56.27-56.13,27.97,5.85,5.85-42,17.39-13.87-10.45-16.6,12.11L5.17,117.87c3.39-1.79,12.82-7.34,18.55-19.05,6.84-13.97,3.67-27.02,2.76-30.34l13.04-10.28c2.01.25,7.19.6,11.13-2.68,2.64-2.2,3.6-5.1,5.01-9.4,1.24-3.76,1.71-7.02,1.91-9.22l17.8-14.54c2.27,1.02,5.78,2.36,10.25,3.08,4.85.79,9.06,1.47,13.45-.5,5.51-2.48,8.02-7.69,8.9-9.85,4.13-3.49,8.26-6.97,12.38-10.46l12.69,5.19,45.83,44.43Z"/>
    </g>
  </g>
</svg>