<?xml version="1.0" encoding="UTF-8"?>
<svg id="Layer_2" data-name="Layer 2" xmlns="http://www.w3.org/2000/svg" viewBox="0 0 200 200">
  <defs>
    <style>
      .cls-1, .cls-2 {
        fill: #ef4823;
      }

      .cls-2, .cls-3 {
        fill-rule: evenodd;
      }

      .cls-3 {
        fill: #010101;
      }
    </style>
  </defs>
  <g id="Layer_3" data-name="Layer 3">
    <g id="White_BG" data-name="White BG">
      <path class="cls-3" d="M0,100c0-26.52,10.54-51.96,29.29-70.71C48.04,10.54,73.48,0,100,0s51.96,10.54,70.71,29.29c18.75,18.75,29.29,44.19,29.29,70.71s-10.54,51.96-29.29,70.71c-18.75,18.75-44.19,29.29-70.71,29.29s-51.96-10.54-70.71-29.29C10.54,151.96,0,126.52,0,100ZM93.75,13.46c-8.38,2.55-16.69,10.25-23.59,23.19-2.27,4.3-4.23,8.76-5.85,13.35h29.44V13.46ZM51.13,50h-22.94c9.59-13.75,22.91-24.48,38.4-30.9-2.81,3.67-5.3,7.58-7.46,11.66-3.09,5.8-5.77,12.25-8,19.24ZM43.85,93.75H12.72c.78-11.13,3.64-21.66,8.2-31.25h26.83c-2.26,10.27-3.57,20.74-3.9,31.25ZM60.59,62.5h33.16v31.25h-37.38c.34-10.53,1.75-21,4.2-31.25h.01ZM106.25,62.5v31.25h37.38c-.35-10.53-1.76-21-4.21-31.25h-33.16ZM56.37,106.25h37.38v31.25h-33.16c-2.46-10.25-3.87-20.72-4.22-31.25h.01ZM106.25,106.25v31.25h33.16c2.34-9.56,3.82-20.1,4.22-31.25h-37.39ZM64.31,150h29.44v36.54c-8.38-2.55-16.69-10.25-23.59-23.19-2.27-4.3-4.23-8.76-5.85-13.35ZM66.59,180.9c-2.81-3.67-5.3-7.58-7.46-11.66-3.24-6.16-5.92-12.6-8-19.24h-22.94c9.59,13.76,22.91,24.48,38.4,30.9ZM47.75,137.5h-26.83c-4.66-9.81-7.44-20.41-8.2-31.25h31.13c.38,10.96,1.72,21.47,3.9,31.25ZM133.41,180.9c15.49-6.42,28.81-17.14,38.4-30.9h-22.94c-2.08,6.64-4.76,13.08-8,19.24-2.16,4.09-4.66,7.99-7.46,11.66ZM106.25,150h29.44c-1.62,4.59-3.58,9.05-5.85,13.35-6.9,12.94-15.22,20.63-23.59,23.19v-36.54ZM152.25,137.5h26.82c4.56-9.59,7.42-20.12,8.2-31.25h-31.12c-.33,10.51-1.64,20.98-3.9,31.25ZM187.27,93.75h-31.12c-.33-10.51-1.64-20.98-3.9-31.25h26.82c4.56,9.59,7.42,20.12,8.2,31.25ZM140.88,30.76c3.09,5.8,5.77,12.25,8,19.24h22.94c-9.59-13.76-22.91-24.48-38.4-30.9,2.72,3.55,5.22,7.47,7.46,11.66ZM135.69,50h-29.44V13.46c8.38,2.55,16.69,10.25,23.59,23.19,2.16,4.05,4.13,8.53,5.85,13.35Z"/>
      <polygon class="cls-2" points="136.6 111.06 100 74.45 150 61.06 200 47.66 186.6 97.66 173.21 147.66 136.6 111.06"/>
      <path class="cls-1" d="M.36,91.51c19.71,11.3,41.65,22.46,64.53,21.95,25.39-.9,48.23-19.7,68.08-35.57,1.68-1.37,4.92-4.17,6.62-5.52,0,0,36.29,35.1,36.29,35.1-.74.78-2.11,2.25-2.88,2.97-21.13,20.09-49.31,35.79-78.51,39.84C53.23,156.2,16.22,127.27.36,91.51H.36Z"/>
    </g>
  </g>
</svg>